<svg width="32" height="32" viewBox="0 0 32 32" fill="none" xmlns="http://www.w3.org/2000/svg">
<g id="Group 121417664">
<path id="Vector" d="M26.5 8.19175H20.975C20.8447 6.77097 20.2116 5.45184 19.1993 4.49187C18.1869 3.5319 16.868 3 15.5 3C14.132 3 12.8131 3.5319 11.8007 4.49187C10.7884 5.45184 10.1553 6.77097 10.025 8.19175H4.5C4.10218 8.19175 3.72064 8.35662 3.43934 8.65012C3.15804 8.9436 3 9.34166 3 9.75672V26.4498C3 26.8649 3.15804 27.2629 3.43934 27.5564C3.72064 27.8499 4.10218 28.0147 4.5 28.0147H26.5C26.8978 28.0147 27.2794 27.8499 27.5607 27.5564C27.842 27.2629 28 26.8649 28 26.4498V9.75672C28 9.34166 27.842 8.9436 27.5607 8.65012C27.2794 8.35662 26.8978 8.19175 26.5 8.19175ZM15.5 4.01848C16.6066 4.02061 17.6739 4.4469 18.499 5.21633C19.324 5.98576 19.8493 7.04466 19.975 8.19175H11.025C11.1507 7.04466 11.676 5.98576 12.501 5.21633C13.3261 4.4469 14.3934 4.02061 15.5 4.01848ZM27 26.4498C27 26.5881 26.9473 26.7208 26.8536 26.8187C26.7598 26.9166 26.6326 26.9714 26.5 26.9714H4.5C4.36739 26.9714 4.24021 26.9166 4.14645 26.8187C4.05268 26.7208 4 26.5881 4 26.4498V9.75672C4 9.61837 4.05268 9.48568 4.14645 9.38786C4.24021 9.29003 4.36739 9.23507 4.5 9.23507H26.5C26.6326 9.23507 26.7598 9.29003 26.8536 9.38786C26.9473 9.48568 27 9.61837 27 9.75672V26.4498Z" fill="#010100"/>
</g>
</svg>
