<svg width="407" height="132" viewBox="0 0 407 132" fill="none" xmlns="http://www.w3.org/2000/svg">
<path d="M338.666 15.6171L387.933 25.4706L388.491 24.541L346.288 0.92981L338.666 15.6171ZM363.021 132C335.691 132 314.683 110.992 314.683 84.7776C314.683 58.3776 336.063 37.1833 362.277 37.1833C378.452 37.1833 393.511 45.3635 402.434 59.3072H366.367C391.28 63.5832 406.896 76.9691 406.896 97.048C406.896 114.71 391.28 132 363.021 132ZM353.167 40.5297C342.756 40.5297 336.993 46.8509 335.691 57.8199H374.176C371.201 48.1523 362.835 40.5297 353.167 40.5297ZM335.505 59.3072C332.903 89.2395 351.68 121.217 378.452 121.217C393.696 121.217 404.665 108.203 404.665 94.0733C404.665 72.879 379.381 59.3072 352.424 59.3072H335.505Z" fill="#010100"/>
<path d="M285.109 129.566L309.092 98.5186L307.418 131.054H236.028L281.019 39.5835H263.543L239.746 70.6314L241.233 38.0962H306.117L261.312 129.566H285.109Z" fill="#010100"/>
<path d="M138.286 99.465C138.286 80.8735 153.345 67.1157 171.379 67.1157C183.092 67.1157 186.81 70.6481 190.528 74.1805C187.182 69.3467 178.444 59.1214 164.314 59.1214H150.371C157.436 46.2932 174.726 37.1834 191.458 37.1834C208.19 37.1834 223.807 44.4341 223.807 62.6538V119.73L233.846 131.071H199.638V108.389C193.875 124.749 181.976 131.628 169.334 131.628C151.858 131.628 138.286 117.499 138.286 99.465ZM174.354 59.3073C179.745 61.3523 193.875 68.4171 199.638 90.541V53.5439C199.638 44.0622 196.663 39.4144 190.9 39.4144C181.79 39.4144 176.585 49.6397 174.354 59.3073ZM160.596 89.6115C160.596 104.299 171.379 120.659 183.835 120.659C194.432 120.659 199.266 109.876 199.266 99.6509C199.266 86.265 189.599 68.9749 176.027 68.9749C166.173 68.9749 160.596 79.0143 160.596 89.6115Z" fill="#010100"/>
<path d="M0 65.9999C0 29.5605 29.9321 0 66.1853 0C102.438 0 132.371 29.5605 132.371 65.9999C132.371 102.439 102.438 132 66.1853 132C29.9321 132 0 102.439 0 65.9999ZM16.3604 43.5042C16.3604 79.3858 51.3122 123.82 85.8921 123.82C101.137 123.82 116.01 112.479 116.01 88.4956C116.01 52.614 81.0584 8.18027 46.4784 8.18027C31.2335 8.18027 16.3604 19.5211 16.3604 43.5042Z" fill="#010100"/>
</svg>
